<svg xmlns="http://www.w3.org/2000/svg" xmlns:xlink="http://www.w3.org/1999/xlink" width="1920" zoomAndPan="magnify" viewBox="0 0 1440 809.999993" height="1080" preserveAspectRatio="xMidYMid meet" version="1.0"><defs><g/></defs><rect x="-144" width="1728" fill="#ffffff" y="-80.999999" height="971.999992" fill-opacity="1"/><g fill="#000000" fill-opacity="1"><g transform="translate(58.74949, 443.991695)"><g><path d="M 49.46875 -88.890625 C 54.40625 -88.890625 58.96875 -88.296875 63.15625 -87.109375 C 67.351562 -85.921875 71.609375 -84.046875 75.921875 -81.484375 L 78.96875 -84 C 81.082031 -85.675781 82.820312 -86.820312 84.1875 -87.4375 C 85.5625 -88.050781 87.128906 -88.359375 88.890625 -88.359375 C 91.003906 -88.359375 92.675781 -87.894531 93.90625 -86.96875 C 95.144531 -86.050781 95.765625 -84.707031 95.765625 -82.9375 C 95.765625 -82.226562 95.632812 -81.476562 95.375 -80.6875 L 89.8125 -62.4375 C 89.195312 -60.320312 88.425781 -58.820312 87.5 -57.9375 C 86.570312 -57.050781 85.1875 -56.609375 83.34375 -56.609375 C 81.394531 -56.609375 79.691406 -57.203125 78.234375 -58.390625 C 76.785156 -59.585938 74.519531 -62.039062 71.4375 -65.75 C 68.34375 -69.269531 65.539062 -71.757812 63.03125 -73.21875 C 60.519531 -74.675781 57.941406 -75.40625 55.296875 -75.40625 C 53.359375 -75.40625 51.726562 -74.765625 50.40625 -73.484375 C 49.082031 -72.203125 48.421875 -70.632812 48.421875 -68.78125 C 48.421875 -66.664062 49.476562 -64.703125 51.59375 -62.890625 C 53.707031 -61.085938 57.015625 -58.820312 61.515625 -56.09375 C 66.097656 -53.351562 69.890625 -50.878906 72.890625 -48.671875 C 75.890625 -46.472656 78.445312 -43.738281 80.5625 -40.46875 C 82.675781 -37.207031 83.734375 -33.460938 83.734375 -29.234375 C 83.734375 -26.503906 83.289062 -23.769531 82.40625 -21.03125 C 80.289062 -13.976562 76.191406 -8.617188 70.109375 -4.953125 C 64.023438 -1.296875 56.925781 0.53125 48.8125 0.53125 C 42.726562 0.53125 37.613281 -0.171875 33.46875 -1.578125 C 29.320312 -2.992188 25.085938 -5.378906 20.765625 -8.734375 L 16 -4.765625 C 13.800781 -2.910156 11.992188 -1.648438 10.578125 -0.984375 C 9.171875 -0.328125 7.585938 0 5.828125 0 C 3.796875 0 2.179688 -0.484375 0.984375 -1.453125 C -0.203125 -2.421875 -0.796875 -3.742188 -0.796875 -5.421875 C -0.796875 -6.304688 -0.617188 -7.234375 -0.265625 -8.203125 L 6.21875 -27.90625 C 6.925781 -30.195312 7.894531 -31.828125 9.125 -32.796875 C 10.363281 -33.773438 11.953125 -34.265625 13.890625 -34.265625 C 15.921875 -34.265625 17.75 -33.554688 19.375 -32.140625 C 21.007812 -30.734375 23.148438 -28.175781 25.796875 -24.46875 C 28.617188 -20.414062 31.238281 -17.59375 33.65625 -16 C 36.082031 -14.414062 38.972656 -13.625 42.328125 -13.625 C 44.710938 -13.625 46.539062 -14 47.8125 -14.75 C 49.09375 -15.5 50 -16.710938 50.53125 -18.390625 C 50.707031 -18.828125 50.796875 -19.488281 50.796875 -20.375 C 50.796875 -22.488281 49.78125 -24.425781 47.75 -26.1875 C 45.726562 -27.957031 42.597656 -30.078125 38.359375 -32.546875 C 33.859375 -35.273438 30.195312 -37.71875 27.375 -39.875 C 24.5625 -42.039062 22.117188 -44.753906 20.046875 -48.015625 C 17.972656 -51.273438 16.9375 -55.113281 16.9375 -59.53125 C 16.9375 -62.613281 17.421875 -65.65625 18.390625 -68.65625 C 20.242188 -74.738281 24.035156 -79.628906 29.765625 -83.328125 C 35.492188 -87.035156 42.0625 -88.890625 49.46875 -88.890625 Z M 49.46875 -88.890625 "/></g></g></g><g fill="#000000" fill-opacity="1"><g transform="translate(149.891226, 443.991695)"><g><path d="M 44.84375 -70.640625 C 56.039062 -70.640625 64.148438 -68.851562 69.171875 -65.28125 C 74.203125 -61.707031 76.71875 -57.144531 76.71875 -51.59375 C 76.71875 -49.914062 76.539062 -48.367188 76.1875 -46.953125 C 74.863281 -41.140625 71.179688 -36.972656 65.140625 -34.453125 C 59.109375 -31.941406 51.988281 -30.6875 43.78125 -30.6875 C 39.632812 -30.6875 35.753906 -30.953125 32.140625 -31.484375 C 32.054688 -26.898438 33.289062 -23.679688 35.84375 -21.828125 C 38.40625 -19.972656 41.976562 -19.046875 46.5625 -19.046875 C 48.675781 -19.046875 50.703125 -19.285156 52.640625 -19.765625 C 54.585938 -20.253906 57.0625 -20.984375 60.0625 -21.953125 C 62.53125 -22.835938 64.203125 -23.28125 65.078125 -23.28125 C 66.046875 -23.28125 66.53125 -22.707031 66.53125 -21.5625 C 66.625 -18.476562 65.476562 -15.238281 63.09375 -11.84375 C 60.71875 -8.445312 57.191406 -5.554688 52.515625 -3.171875 C 47.835938 -0.796875 42.191406 0.390625 35.578125 0.390625 C 25.796875 0.390625 17.769531 -2.078125 11.5 -7.015625 C 5.238281 -11.953125 2.109375 -19.140625 2.109375 -28.578125 C 2.109375 -31.222656 2.460938 -34.304688 3.171875 -37.828125 C 5.378906 -48.679688 10.207031 -56.863281 17.65625 -62.375 C 25.113281 -67.882812 34.175781 -70.640625 44.84375 -70.640625 Z M 33.078125 -39.421875 C 33.421875 -39.328125 33.90625 -39.28125 34.53125 -39.28125 C 38.226562 -39.28125 41.046875 -41 42.984375 -44.4375 C 44.929688 -47.882812 45.859375 -51.722656 45.765625 -55.953125 C 45.679688 -58.421875 44.976562 -59.65625 43.65625 -59.65625 C 42.6875 -59.65625 41.539062 -58.882812 40.21875 -57.34375 C 38.894531 -55.800781 37.59375 -53.484375 36.3125 -50.390625 C 35.03125 -47.304688 33.953125 -43.648438 33.078125 -39.421875 Z M 53.71875 -90.078125 C 55.832031 -93.785156 58.015625 -96.476562 60.265625 -98.15625 C 62.515625 -99.832031 65.222656 -100.671875 68.390625 -100.671875 C 71.128906 -100.671875 73.289062 -99.941406 74.875 -98.484375 C 76.46875 -97.023438 77.265625 -95.0625 77.265625 -92.59375 C 77.265625 -89.945312 76.378906 -87.65625 74.609375 -85.71875 C 72.847656 -83.78125 69.984375 -81.835938 66.015625 -79.890625 L 54.5 -74.34375 C 52.832031 -73.632812 51.425781 -73.28125 50.28125 -73.28125 C 49.21875 -73.28125 48.351562 -73.546875 47.6875 -74.078125 C 47.03125 -74.609375 46.703125 -75.398438 46.703125 -76.453125 C 46.703125 -77.597656 47.144531 -78.921875 48.03125 -80.421875 Z M 53.71875 -90.078125 "/></g></g></g><g fill="#000000" fill-opacity="1"><g transform="translate(223.968676, 443.991695)"><g><path d="M 42.203125 -97.75 C 47.316406 -97.75 51.082031 -96.78125 53.5 -94.84375 C 55.925781 -92.90625 57.140625 -90.257812 57.140625 -86.90625 C 57.140625 -84.96875 56.832031 -83.070312 56.21875 -81.21875 L 35.453125 -13.75 C 35.179688 -12.695312 35.046875 -11.773438 35.046875 -10.984375 C 35.046875 -9.835938 35.265625 -8.929688 35.703125 -8.265625 C 36.148438 -7.609375 36.769531 -6.96875 37.5625 -6.34375 C 38.1875 -5.726562 38.628906 -5.222656 38.890625 -4.828125 C 39.148438 -4.429688 39.191406 -3.925781 39.015625 -3.3125 C 38.578125 -2.164062 37.695312 -1.328125 36.375 -0.796875 C 35.050781 -0.265625 33.023438 0 30.296875 0 L 0.125 0 C -2.164062 0 -3.835938 -0.375 -4.890625 -1.125 C -5.953125 -1.875 -6.304688 -2.863281 -5.953125 -4.09375 C -5.597656 -5.15625 -4.671875 -6.082031 -3.171875 -6.875 C -1.847656 -7.582031 -0.75 -8.421875 0.125 -9.390625 C 1.007812 -10.359375 1.757812 -11.898438 2.375 -14.015625 L 22.484375 -80.03125 C 22.753906 -80.820312 22.890625 -81.484375 22.890625 -82.015625 C 22.890625 -82.984375 22.644531 -83.773438 22.15625 -84.390625 C 21.664062 -85.015625 21.023438 -85.632812 20.234375 -86.25 C 19.359375 -86.957031 18.71875 -87.570312 18.3125 -88.09375 C 17.914062 -88.625 17.851562 -89.332031 18.125 -90.21875 C 18.65625 -92.25 21.429688 -94.007812 26.453125 -95.5 C 31.484375 -97 36.734375 -97.75 42.203125 -97.75 Z M 42.203125 -97.75 "/></g></g></g><g fill="#000000" fill-opacity="1"><g transform="translate(272.383599, 443.991695)"><g><path d="M 44.84375 -70.640625 C 56.039062 -70.640625 64.148438 -68.851562 69.171875 -65.28125 C 74.203125 -61.707031 76.71875 -57.144531 76.71875 -51.59375 C 76.71875 -49.914062 76.539062 -48.367188 76.1875 -46.953125 C 74.863281 -41.140625 71.179688 -36.972656 65.140625 -34.453125 C 59.109375 -31.941406 51.988281 -30.6875 43.78125 -30.6875 C 39.632812 -30.6875 35.753906 -30.953125 32.140625 -31.484375 C 32.054688 -26.898438 33.289062 -23.679688 35.84375 -21.828125 C 38.40625 -19.972656 41.976562 -19.046875 46.5625 -19.046875 C 48.675781 -19.046875 50.703125 -19.285156 52.640625 -19.765625 C 54.585938 -20.253906 57.0625 -20.984375 60.0625 -21.953125 C 62.53125 -22.835938 64.203125 -23.28125 65.078125 -23.28125 C 66.046875 -23.28125 66.53125 -22.707031 66.53125 -21.5625 C 66.625 -18.476562 65.476562 -15.238281 63.09375 -11.84375 C 60.71875 -8.445312 57.191406 -5.554688 52.515625 -3.171875 C 47.835938 -0.796875 42.191406 0.390625 35.578125 0.390625 C 25.796875 0.390625 17.769531 -2.078125 11.5 -7.015625 C 5.238281 -11.953125 2.109375 -19.140625 2.109375 -28.578125 C 2.109375 -31.222656 2.460938 -34.304688 3.171875 -37.828125 C 5.378906 -48.679688 10.207031 -56.863281 17.65625 -62.375 C 25.113281 -67.882812 34.175781 -70.640625 44.84375 -70.640625 Z M 33.078125 -39.421875 C 33.421875 -39.328125 33.90625 -39.28125 34.53125 -39.28125 C 38.226562 -39.28125 41.046875 -41 42.984375 -44.4375 C 44.929688 -47.882812 45.859375 -51.722656 45.765625 -55.953125 C 45.679688 -58.421875 44.976562 -59.65625 43.65625 -59.65625 C 42.6875 -59.65625 41.539062 -58.882812 40.21875 -57.34375 C 38.894531 -55.800781 37.59375 -53.484375 36.3125 -50.390625 C 35.03125 -47.304688 33.953125 -43.648438 33.078125 -39.421875 Z M 33.078125 -39.421875 "/></g></g></g><g fill="#000000" fill-opacity="1"><g transform="translate(346.461049, 443.991695)"><g><path d="M 48.015625 -70.640625 C 53.398438 -70.640625 58.117188 -69.867188 62.171875 -68.328125 C 66.222656 -66.785156 69.375 -64.664062 71.625 -61.96875 C 73.875 -59.28125 75 -56.304688 75 -53.046875 C 75 -49.515625 73.785156 -46.601562 71.359375 -44.3125 C 68.941406 -42.019531 65.660156 -40.875 61.515625 -40.875 C 57.273438 -40.875 53.960938 -41.953125 51.578125 -44.109375 C 49.203125 -46.273438 48.015625 -49.207031 48.015625 -52.90625 C 48.015625 -54.675781 48.28125 -56.53125 48.8125 -58.46875 C 45.101562 -57.5 41.816406 -55.582031 38.953125 -52.71875 C 36.085938 -49.851562 34.171875 -46.082031 33.203125 -41.40625 C 32.671875 -38.757812 32.40625 -36.378906 32.40625 -34.265625 C 32.40625 -29.503906 33.726562 -25.882812 36.375 -23.40625 C 39.019531 -20.9375 42.8125 -19.703125 47.75 -19.703125 C 50.570312 -19.703125 53 -19.988281 55.03125 -20.5625 C 57.0625 -21.132812 59.132812 -21.910156 61.25 -22.890625 C 63.007812 -23.765625 64.285156 -24.203125 65.078125 -24.203125 C 65.609375 -24.203125 65.960938 -24.09375 66.140625 -23.875 C 66.316406 -23.65625 66.40625 -23.191406 66.40625 -22.484375 C 66.488281 -19.222656 65.140625 -15.804688 62.359375 -12.234375 C 59.585938 -8.660156 55.753906 -5.660156 50.859375 -3.234375 C 45.960938 -0.816406 40.472656 0.390625 34.390625 0.390625 C 28.046875 0.390625 22.425781 -0.773438 17.53125 -3.109375 C 12.632812 -5.441406 8.835938 -8.789062 6.140625 -13.15625 C 3.453125 -17.519531 2.109375 -22.613281 2.109375 -28.4375 C 2.109375 -31.175781 2.460938 -34.21875 3.171875 -37.5625 C 5.554688 -48.5 10.828125 -56.742188 18.984375 -62.296875 C 27.140625 -67.859375 36.816406 -70.640625 48.015625 -70.640625 Z M 48.015625 -70.640625 "/></g></g></g><g fill="#000000" fill-opacity="1"><g transform="translate(418.157438, 443.991695)"><g><path d="M 59.125 -68.25 C 60.800781 -68.25 62.101562 -67.894531 63.03125 -67.1875 C 63.957031 -66.488281 64.421875 -65.519531 64.421875 -64.28125 C 64.421875 -63.9375 64.332031 -63.320312 64.15625 -62.4375 C 63.007812 -58.550781 60.363281 -56.609375 56.21875 -56.609375 L 48.546875 -56.609375 L 38.625 -23.9375 C 38.1875 -22.613281 37.96875 -21.25 37.96875 -19.84375 C 37.96875 -18.257812 38.40625 -17.15625 39.28125 -16.53125 C 40.164062 -15.914062 41.398438 -15.609375 42.984375 -15.609375 C 44.398438 -15.609375 46.164062 -15.785156 48.28125 -16.140625 C 49.34375 -16.398438 50.269531 -16.53125 51.0625 -16.53125 C 51.675781 -16.53125 52.132812 -16.332031 52.4375 -15.9375 C 52.75 -15.539062 52.90625 -15.035156 52.90625 -14.421875 C 53 -12.648438 51.695312 -10.507812 49 -8 C 46.3125 -5.488281 42.675781 -3.328125 38.09375 -1.515625 C 33.507812 0.285156 28.441406 1.1875 22.890625 1.1875 C 16.890625 1.1875 12.082031 -0.175781 8.46875 -2.90625 C 4.851562 -5.644531 3.046875 -9.394531 3.046875 -14.15625 C 3.046875 -16.363281 3.394531 -18.476562 4.09375 -20.5 L 12.5625 -46.6875 C 13.007812 -48.1875 13.234375 -49.378906 13.234375 -50.265625 C 13.234375 -52.023438 12.8125 -53.519531 11.96875 -54.75 C 11.132812 -55.988281 9.96875 -57.269531 8.46875 -58.59375 C 7.144531 -59.832031 6.21875 -60.867188 5.6875 -61.703125 C 5.15625 -62.546875 5.023438 -63.539062 5.296875 -64.6875 C 5.648438 -65.832031 6.398438 -66.710938 7.546875 -67.328125 C 8.691406 -67.941406 10.5 -68.25 12.96875 -68.25 L 20.375 -68.25 L 28.703125 -76.59375 C 31.617188 -79.5 34.285156 -81.523438 36.703125 -82.671875 C 39.128906 -83.816406 42.285156 -84.390625 46.171875 -84.390625 C 51.722656 -84.390625 54.5 -82.273438 54.5 -78.046875 C 54.5 -76.722656 54.320312 -75.488281 53.96875 -74.34375 L 52.125 -68.25 Z M 59.125 -68.25 "/></g></g></g><g fill="#000000" fill-opacity="1"><g transform="translate(475.038355, 443.991695)"><g><path d="M 34.78125 -69.984375 C 39.894531 -69.984375 43.640625 -69.007812 46.015625 -67.0625 C 48.398438 -65.125 49.59375 -62.476562 49.59375 -59.125 C 49.59375 -57.101562 49.285156 -55.164062 48.671875 -53.3125 L 36.5 -13.75 C 36.238281 -12.695312 36.109375 -11.773438 36.109375 -10.984375 C 36.109375 -9.835938 36.328125 -8.929688 36.765625 -8.265625 C 37.203125 -7.609375 37.820312 -6.96875 38.625 -6.34375 C 39.238281 -5.726562 39.675781 -5.222656 39.9375 -4.828125 C 40.207031 -4.429688 40.253906 -3.925781 40.078125 -3.3125 C 39.628906 -2.164062 38.742188 -1.328125 37.421875 -0.796875 C 36.097656 -0.265625 34.070312 0 31.34375 0 L 1.1875 0 C -1.101562 0 -2.78125 -0.375 -3.84375 -1.125 C -4.90625 -1.875 -5.257812 -2.863281 -4.90625 -4.09375 C -4.550781 -5.15625 -3.625 -6.082031 -2.125 -6.875 C -0.800781 -7.582031 0.296875 -8.421875 1.171875 -9.390625 C 2.054688 -10.359375 2.8125 -11.898438 3.4375 -14.015625 L 14.9375 -52.25 C 15.207031 -53.039062 15.34375 -53.703125 15.34375 -54.234375 C 15.34375 -55.203125 15.117188 -55.972656 14.671875 -56.546875 C 14.234375 -57.117188 13.570312 -57.71875 12.6875 -58.34375 C 11.8125 -59.039062 11.195312 -59.65625 10.84375 -60.1875 C 10.488281 -60.71875 10.441406 -61.421875 10.703125 -62.296875 C 11.234375 -64.328125 14.007812 -66.113281 19.03125 -67.65625 C 24.0625 -69.207031 29.3125 -69.984375 34.78125 -69.984375 Z M 43.65625 -99.21875 C 47.09375 -99.21875 49.957031 -98.09375 52.25 -95.84375 C 54.539062 -93.59375 55.6875 -90.832031 55.6875 -87.5625 C 55.6875 -85.269531 55.09375 -83.019531 53.90625 -80.8125 C 52.71875 -78.613281 51.039062 -76.832031 48.875 -75.46875 C 46.71875 -74.101562 44.316406 -73.421875 41.671875 -73.421875 C 38.316406 -73.421875 35.515625 -74.539062 33.265625 -76.78125 C 31.015625 -79.03125 29.847656 -81.832031 29.765625 -85.1875 C 29.765625 -87.394531 30.335938 -89.578125 31.484375 -91.734375 C 32.628906 -93.898438 34.257812 -95.6875 36.375 -97.09375 C 38.488281 -98.507812 40.914062 -99.21875 43.65625 -99.21875 Z M 43.65625 -99.21875 "/></g></g></g><g fill="#000000" fill-opacity="1"><g transform="translate(523.453279, 443.991695)"><g><path d="M 51.1875 -69.984375 C 63.1875 -69.984375 72.03125 -67.554688 77.71875 -62.703125 C 83.40625 -57.847656 86.25 -51.5 86.25 -43.65625 C 86.25 -41.007812 85.894531 -38.054688 85.1875 -34.796875 C 83.507812 -27.554688 80.378906 -21.222656 75.796875 -15.796875 C 71.210938 -10.378906 65.585938 -6.191406 58.921875 -3.234375 C 52.265625 -0.285156 45.054688 1.1875 37.296875 1.1875 C 25.046875 1.1875 15.988281 -1.257812 10.125 -6.15625 C 4.257812 -11.050781 1.328125 -17.550781 1.328125 -25.65625 C 1.328125 -28.394531 1.675781 -31.441406 2.375 -34.796875 C 4.050781 -41.671875 7.25 -47.773438 11.96875 -53.109375 C 16.6875 -58.441406 22.460938 -62.585938 29.296875 -65.546875 C 36.128906 -68.503906 43.425781 -69.984375 51.1875 -69.984375 Z M 50.796875 -58.203125 C 48.941406 -58.203125 46.976562 -56.546875 44.90625 -53.234375 C 42.832031 -49.929688 40.382812 -43.695312 37.5625 -34.53125 C 34.738281 -25.351562 33.328125 -18.914062 33.328125 -15.21875 C 33.328125 -13.269531 33.632812 -11.960938 34.25 -11.296875 C 34.875 -10.640625 35.71875 -10.3125 36.78125 -10.3125 C 38.625 -10.132812 40.535156 -11.722656 42.515625 -15.078125 C 44.503906 -18.429688 47 -24.957031 50 -34.65625 C 52.738281 -43.207031 54.109375 -49.425781 54.109375 -53.3125 C 54.109375 -55.164062 53.820312 -56.441406 53.25 -57.140625 C 52.675781 -57.847656 51.859375 -58.203125 50.796875 -58.203125 Z M 50.796875 -58.203125 "/></g></g></g><g fill="#000000" fill-opacity="1"><g transform="translate(610.229734, 443.991695)"><g><path d="M 81.875 -18.25 C 81.707031 -17.894531 81.625 -17.367188 81.625 -16.671875 C 81.625 -16.046875 81.773438 -15.554688 82.078125 -15.203125 C 82.390625 -14.859375 82.8125 -14.6875 83.34375 -14.6875 C 84.394531 -14.6875 85.296875 -15.148438 86.046875 -16.078125 C 86.796875 -17.003906 87.300781 -17.46875 87.5625 -17.46875 C 88.007812 -17.46875 88.363281 -17.175781 88.625 -16.59375 C 88.894531 -16.019531 89.03125 -15.335938 89.03125 -14.546875 C 89.113281 -11.992188 88.269531 -9.503906 86.5 -7.078125 C 84.738281 -4.648438 82.160156 -2.664062 78.765625 -1.125 C 75.378906 0.414062 71.300781 1.1875 66.53125 1.1875 C 60.71875 1.1875 56.085938 -0.15625 52.640625 -2.84375 C 49.203125 -5.53125 47.441406 -9.125 47.359375 -13.625 C 47.359375 -16.882812 48.148438 -20.546875 49.734375 -24.609375 L 57.015625 -43.65625 C 57.453125 -44.800781 57.671875 -45.726562 57.671875 -46.4375 C 57.671875 -47.582031 57.296875 -48.484375 56.546875 -49.140625 C 55.796875 -49.804688 54.894531 -50.140625 53.84375 -50.140625 C 51.894531 -50.140625 50.039062 -49.234375 48.28125 -47.421875 C 46.519531 -45.617188 45.242188 -43.394531 44.453125 -40.75 L 36.25 -13.75 C 35.894531 -12.78125 35.71875 -11.859375 35.71875 -10.984375 C 35.71875 -9.921875 35.9375 -9.054688 36.375 -8.390625 C 36.8125 -7.734375 37.429688 -7.050781 38.234375 -6.34375 C 38.847656 -5.820312 39.285156 -5.335938 39.546875 -4.890625 C 39.816406 -4.453125 39.863281 -3.925781 39.6875 -3.3125 C 39.332031 -2.164062 38.492188 -1.328125 37.171875 -0.796875 C 35.847656 -0.265625 33.773438 0 30.953125 0 L 0.796875 0 C -1.492188 0 -3.144531 -0.375 -4.15625 -1.125 C -5.175781 -1.875 -5.554688 -2.863281 -5.296875 -4.09375 C -4.941406 -5.15625 -4.015625 -6.082031 -2.515625 -6.875 C -1.191406 -7.582031 -0.09375 -8.421875 0.78125 -9.390625 C 1.664062 -10.359375 2.421875 -11.898438 3.046875 -14.015625 L 14.8125 -52.25 C 14.988281 -52.6875 15.078125 -53.304688 15.078125 -54.109375 C 15.078125 -55.078125 14.878906 -55.820312 14.484375 -56.34375 C 14.085938 -56.875 13.445312 -57.539062 12.5625 -58.34375 C 11.6875 -59.039062 11.070312 -59.65625 10.71875 -60.1875 C 10.363281 -60.71875 10.316406 -61.421875 10.578125 -62.296875 C 11.109375 -64.328125 13.882812 -66.113281 18.90625 -67.65625 C 23.9375 -69.207031 29.1875 -69.984375 34.65625 -69.984375 C 39.0625 -69.984375 42.539062 -68.769531 45.09375 -66.34375 C 47.65625 -63.914062 48.804688 -60.539062 48.546875 -56.21875 C 52.160156 -61.425781 55.992188 -65.019531 60.046875 -67 C 64.109375 -68.988281 68.519531 -69.984375 73.28125 -69.984375 C 78.664062 -69.984375 83.007812 -68.347656 86.3125 -65.078125 C 89.625 -61.816406 91.28125 -57.585938 91.28125 -52.390625 C 91.28125 -49.648438 90.835938 -46.957031 89.953125 -44.3125 Z M 81.875 -18.25 "/></g></g></g><g fill="#000000" fill-opacity="1"><g transform="translate(704.943064, 443.991695)"><g/></g></g><g fill="#000000" fill-opacity="1"><g transform="translate(731.399303, 443.991695)"><g><path d="M 81.875 -18.25 C 81.707031 -17.894531 81.625 -17.367188 81.625 -16.671875 C 81.625 -16.046875 81.773438 -15.554688 82.078125 -15.203125 C 82.390625 -14.859375 82.8125 -14.6875 83.34375 -14.6875 C 84.394531 -14.6875 85.296875 -15.148438 86.046875 -16.078125 C 86.796875 -17.003906 87.300781 -17.46875 87.5625 -17.46875 C 88.007812 -17.46875 88.363281 -17.175781 88.625 -16.59375 C 88.894531 -16.019531 89.03125 -15.335938 89.03125 -14.546875 C 89.113281 -11.992188 88.269531 -9.503906 86.5 -7.078125 C 84.738281 -4.648438 82.160156 -2.664062 78.765625 -1.125 C 75.378906 0.414062 71.300781 1.1875 66.53125 1.1875 C 60.71875 1.1875 56.085938 -0.15625 52.640625 -2.84375 C 49.203125 -5.53125 47.441406 -9.125 47.359375 -13.625 C 47.359375 -16.882812 48.148438 -20.546875 49.734375 -24.609375 L 57.015625 -43.65625 C 57.453125 -44.800781 57.671875 -45.726562 57.671875 -46.4375 C 57.671875 -47.582031 57.296875 -48.484375 56.546875 -49.140625 C 55.796875 -49.804688 54.894531 -50.140625 53.84375 -50.140625 C 51.894531 -50.140625 50.039062 -49.234375 48.28125 -47.421875 C 46.519531 -45.617188 45.242188 -43.394531 44.453125 -40.75 L 36.25 -13.75 C 35.894531 -12.78125 35.71875 -11.859375 35.71875 -10.984375 C 35.71875 -9.921875 35.9375 -9.054688 36.375 -8.390625 C 36.8125 -7.734375 37.429688 -7.050781 38.234375 -6.34375 C 38.847656 -5.820312 39.285156 -5.335938 39.546875 -4.890625 C 39.816406 -4.453125 39.863281 -3.925781 39.6875 -3.3125 C 39.332031 -2.164062 38.492188 -1.328125 37.171875 -0.796875 C 35.847656 -0.265625 33.773438 0 30.953125 0 L 0.796875 0 C -1.492188 0 -3.144531 -0.375 -4.15625 -1.125 C -5.175781 -1.875 -5.554688 -2.863281 -5.296875 -4.09375 C -4.941406 -5.15625 -4.015625 -6.082031 -2.515625 -6.875 C -1.191406 -7.582031 -0.09375 -8.421875 0.78125 -9.390625 C 1.664062 -10.359375 2.421875 -11.898438 3.046875 -14.015625 L 14.8125 -52.25 C 14.988281 -52.6875 15.078125 -53.304688 15.078125 -54.109375 C 15.078125 -55.078125 14.878906 -55.820312 14.484375 -56.34375 C 14.085938 -56.875 13.445312 -57.539062 12.5625 -58.34375 C 11.6875 -59.039062 11.070312 -59.65625 10.71875 -60.1875 C 10.363281 -60.71875 10.316406 -61.421875 10.578125 -62.296875 C 11.109375 -64.328125 13.882812 -66.113281 18.90625 -67.65625 C 23.9375 -69.207031 29.1875 -69.984375 34.65625 -69.984375 C 39.0625 -69.984375 42.539062 -68.769531 45.09375 -66.34375 C 47.65625 -63.914062 48.804688 -60.539062 48.546875 -56.21875 C 52.160156 -61.425781 55.992188 -65.019531 60.046875 -67 C 64.109375 -68.988281 68.519531 -69.984375 73.28125 -69.984375 C 78.664062 -69.984375 83.007812 -68.347656 86.3125 -65.078125 C 89.625 -61.816406 91.28125 -57.585938 91.28125 -52.390625 C 91.28125 -49.648438 90.835938 -46.957031 89.953125 -44.3125 Z M 81.875 -18.25 "/></g></g></g><g fill="#000000" fill-opacity="1"><g transform="translate(826.112633, 443.991695)"><g><path d="M 47.21875 -69.984375 C 57.363281 -69.984375 65.476562 -68.109375 71.5625 -64.359375 C 77.644531 -60.609375 80.6875 -54.894531 80.6875 -47.21875 C 80.6875 -44.3125 80.160156 -41.003906 79.109375 -37.296875 L 73.6875 -19.046875 C 73.59375 -18.691406 73.546875 -18.25 73.546875 -17.71875 C 73.546875 -16.3125 74.117188 -15.609375 75.265625 -15.609375 C 76.328125 -15.609375 77.234375 -16.070312 77.984375 -17 C 78.734375 -17.925781 79.238281 -18.390625 79.5 -18.390625 C 79.9375 -18.390625 80.3125 -18.078125 80.625 -17.453125 C 80.9375 -16.835938 81.09375 -16.132812 81.09375 -15.34375 C 81.175781 -12.957031 80.269531 -10.53125 78.375 -8.0625 C 76.476562 -5.59375 73.941406 -3.566406 70.765625 -1.984375 C 67.597656 -0.398438 64.113281 0.390625 60.3125 0.390625 C 55.726562 0.390625 51.804688 -0.441406 48.546875 -2.109375 C 45.285156 -3.785156 43.035156 -6.257812 41.796875 -9.53125 C 39.148438 -6.351562 36.019531 -3.90625 32.40625 -2.1875 C 28.789062 -0.46875 24.910156 0.390625 20.765625 0.390625 C 16.085938 0.390625 12.160156 -0.507812 8.984375 -2.3125 C 5.816406 -4.125 3.460938 -6.460938 1.921875 -9.328125 C 0.378906 -12.191406 -0.390625 -15.210938 -0.390625 -18.390625 C -0.390625 -19.796875 -0.257812 -21.160156 0 -22.484375 C 1.40625 -28.566406 4.46875 -33.148438 9.1875 -36.234375 C 13.90625 -39.328125 19.53125 -40.875 26.0625 -40.875 C 33.375 -40.875 40.5625 -39.726562 47.625 -37.4375 L 50.921875 -46.171875 C 52.066406 -49.867188 52.640625 -52.734375 52.640625 -54.765625 C 52.554688 -56.878906 51.851562 -58.460938 50.53125 -59.515625 C 49.207031 -60.578125 47.179688 -61.109375 44.453125 -61.109375 C 44.972656 -59.703125 45.234375 -58.25 45.234375 -56.75 C 45.234375 -53.488281 44 -50.664062 41.53125 -48.28125 C 39.0625 -45.90625 35.535156 -44.71875 30.953125 -44.71875 C 26.628906 -44.71875 23.253906 -45.664062 20.828125 -47.5625 C 18.410156 -49.457031 17.203125 -51.8125 17.203125 -54.625 C 17.203125 -59.039062 19.671875 -62.703125 24.609375 -65.609375 C 29.546875 -68.523438 37.082031 -69.984375 47.21875 -69.984375 Z M 39.8125 -29.890625 C 37.34375 -29.890625 35.335938 -28.941406 33.796875 -27.046875 C 32.253906 -25.148438 31.484375 -23.101562 31.484375 -20.90625 C 31.484375 -19.488281 31.8125 -18.335938 32.46875 -17.453125 C 33.132812 -16.578125 34.082031 -16.140625 35.3125 -16.140625 C 36.457031 -16.140625 37.710938 -16.601562 39.078125 -17.53125 C 40.453125 -18.457031 41.445312 -19.84375 42.0625 -21.6875 L 44.84375 -29.5 C 43.34375 -29.757812 41.664062 -29.890625 39.8125 -29.890625 Z M 39.8125 -29.890625 "/></g></g></g><g fill="#000000" fill-opacity="1"><g transform="translate(912.624492, 443.991695)"><g><path d="M 59.125 -68.25 C 60.800781 -68.25 62.101562 -67.894531 63.03125 -67.1875 C 63.957031 -66.488281 64.421875 -65.519531 64.421875 -64.28125 C 64.421875 -63.9375 64.332031 -63.320312 64.15625 -62.4375 C 63.007812 -58.550781 60.363281 -56.609375 56.21875 -56.609375 L 48.546875 -56.609375 L 38.625 -23.9375 C 38.1875 -22.613281 37.96875 -21.25 37.96875 -19.84375 C 37.96875 -18.257812 38.40625 -17.15625 39.28125 -16.53125 C 40.164062 -15.914062 41.398438 -15.609375 42.984375 -15.609375 C 44.398438 -15.609375 46.164062 -15.785156 48.28125 -16.140625 C 49.34375 -16.398438 50.269531 -16.53125 51.0625 -16.53125 C 51.675781 -16.53125 52.132812 -16.332031 52.4375 -15.9375 C 52.75 -15.539062 52.90625 -15.035156 52.90625 -14.421875 C 53 -12.648438 51.695312 -10.507812 49 -8 C 46.3125 -5.488281 42.675781 -3.328125 38.09375 -1.515625 C 33.507812 0.285156 28.441406 1.1875 22.890625 1.1875 C 16.890625 1.1875 12.082031 -0.175781 8.46875 -2.90625 C 4.851562 -5.644531 3.046875 -9.394531 3.046875 -14.15625 C 3.046875 -16.363281 3.394531 -18.476562 4.09375 -20.5 L 12.5625 -46.6875 C 13.007812 -48.1875 13.234375 -49.378906 13.234375 -50.265625 C 13.234375 -52.023438 12.8125 -53.519531 11.96875 -54.75 C 11.132812 -55.988281 9.96875 -57.269531 8.46875 -58.59375 C 7.144531 -59.832031 6.21875 -60.867188 5.6875 -61.703125 C 5.15625 -62.546875 5.023438 -63.539062 5.296875 -64.6875 C 5.648438 -65.832031 6.398438 -66.710938 7.546875 -67.328125 C 8.691406 -67.941406 10.5 -68.25 12.96875 -68.25 L 20.375 -68.25 L 28.703125 -76.59375 C 31.617188 -79.5 34.285156 -81.523438 36.703125 -82.671875 C 39.128906 -83.816406 42.285156 -84.390625 46.171875 -84.390625 C 51.722656 -84.390625 54.5 -82.273438 54.5 -78.046875 C 54.5 -76.722656 54.320312 -75.488281 53.96875 -74.34375 L 52.125 -68.25 Z M 59.125 -68.25 "/></g></g></g><g fill="#000000" fill-opacity="1"><g transform="translate(969.505409, 443.991695)"><g><path d="M 78.578125 -18.25 C 78.398438 -17.550781 78.3125 -17.023438 78.3125 -16.671875 C 78.3125 -16.046875 78.460938 -15.554688 78.765625 -15.203125 C 79.078125 -14.859375 79.5 -14.6875 80.03125 -14.6875 C 81.09375 -14.6875 81.992188 -15.148438 82.734375 -16.078125 C 83.484375 -17.003906 83.992188 -17.46875 84.265625 -17.46875 C 84.703125 -17.46875 85.070312 -17.175781 85.375 -16.59375 C 85.6875 -16.019531 85.84375 -15.335938 85.84375 -14.546875 C 85.9375 -12.078125 85.054688 -9.628906 83.203125 -7.203125 C 81.347656 -4.785156 78.742188 -2.78125 75.390625 -1.1875 C 72.046875 0.394531 68.300781 1.1875 64.15625 1.1875 C 58.957031 1.1875 54.8125 0.128906 51.71875 -1.984375 C 48.632812 -4.097656 46.648438 -6.875 45.765625 -10.3125 C 42.585938 -6.789062 39.082031 -4.125 35.25 -2.3125 C 31.414062 -0.507812 27.515625 0.390625 23.546875 0.390625 C 17.367188 0.390625 12.1875 -1.128906 8 -4.171875 C 3.8125 -7.210938 1.71875 -11.46875 1.71875 -16.9375 C 1.71875 -19.40625 2.160156 -21.960938 3.046875 -24.609375 L 11.515625 -52.25 C 11.773438 -53.039062 11.90625 -53.703125 11.90625 -54.234375 C 11.90625 -55.203125 11.679688 -55.972656 11.234375 -56.546875 C 10.796875 -57.117188 10.140625 -57.71875 9.265625 -58.34375 C 8.378906 -59.039062 7.757812 -59.65625 7.40625 -60.1875 C 7.050781 -60.71875 7.007812 -61.421875 7.28125 -62.296875 C 7.800781 -64.328125 10.578125 -66.113281 15.609375 -67.65625 C 20.640625 -69.207031 25.882812 -69.984375 31.34375 -69.984375 C 36.457031 -69.984375 40.207031 -69.007812 42.59375 -67.0625 C 44.976562 -65.125 46.171875 -62.476562 46.171875 -59.125 C 46.171875 -57.101562 45.859375 -55.164062 45.234375 -53.3125 L 36.90625 -25.796875 C 36.550781 -24.828125 36.375 -23.898438 36.375 -23.015625 C 36.375 -21.785156 36.726562 -20.859375 37.4375 -20.234375 C 38.144531 -19.617188 39.070312 -19.3125 40.21875 -19.3125 C 41.894531 -19.3125 43.257812 -19.796875 44.3125 -20.765625 C 45.375 -21.734375 46.429688 -23.363281 47.484375 -25.65625 L 55.5625 -52.25 C 55.820312 -53.039062 55.953125 -53.703125 55.953125 -54.234375 C 55.953125 -55.203125 55.726562 -55.972656 55.28125 -56.546875 C 54.84375 -57.117188 54.226562 -57.71875 53.4375 -58.34375 C 52.5625 -59.039062 51.945312 -59.65625 51.59375 -60.1875 C 51.238281 -60.71875 51.191406 -61.421875 51.453125 -62.296875 C 51.898438 -64.328125 54.632812 -66.113281 59.65625 -67.65625 C 64.6875 -69.207031 69.9375 -69.984375 75.40625 -69.984375 C 80.519531 -69.984375 84.285156 -69.007812 86.703125 -67.0625 C 89.128906 -65.125 90.34375 -62.523438 90.34375 -59.265625 C 90.34375 -57.585938 89.992188 -55.601562 89.296875 -53.3125 Z M 78.578125 -18.25 "/></g></g></g><g fill="#000000" fill-opacity="1"><g transform="translate(1060.250301, 443.991695)"><g><path d="M 64.953125 -69.984375 C 69.890625 -69.984375 73.832031 -68.484375 76.78125 -65.484375 C 79.738281 -62.484375 81.21875 -58.78125 81.21875 -54.375 C 81.21875 -52.695312 81.039062 -51.148438 80.6875 -49.734375 C 79.8125 -46.117188 78.140625 -43.34375 75.671875 -41.40625 C 73.203125 -39.46875 70.242188 -38.5 66.796875 -38.5 C 63.453125 -38.5 60.914062 -39.289062 59.1875 -40.875 C 57.46875 -42.457031 55.945312 -44.570312 54.625 -47.21875 C 53.925781 -48.71875 53.265625 -49.820312 52.640625 -50.53125 C 52.023438 -51.238281 51.320312 -51.59375 50.53125 -51.59375 C 49.644531 -51.59375 48.867188 -51.238281 48.203125 -50.53125 C 47.546875 -49.820312 46.957031 -48.585938 46.4375 -46.828125 L 36.25 -13.75 C 36.070312 -13.3125 35.984375 -12.648438 35.984375 -11.765625 C 35.984375 -10.617188 36.3125 -9.671875 36.96875 -8.921875 C 37.632812 -8.171875 38.539062 -7.445312 39.6875 -6.75 C 40.738281 -6.039062 41.441406 -5.460938 41.796875 -5.015625 C 42.148438 -4.578125 42.285156 -4.007812 42.203125 -3.3125 C 42.023438 -2.164062 41.382812 -1.328125 40.28125 -0.796875 C 39.175781 -0.265625 37.300781 0 34.65625 0 L 0.796875 0 C -1.492188 0 -3.144531 -0.375 -4.15625 -1.125 C -5.175781 -1.875 -5.554688 -2.863281 -5.296875 -4.09375 C -4.941406 -5.15625 -4.015625 -6.082031 -2.515625 -6.875 C -1.191406 -7.582031 -0.09375 -8.421875 0.78125 -9.390625 C 1.664062 -10.359375 2.421875 -11.898438 3.046875 -14.015625 L 14.8125 -52.25 C 14.988281 -52.6875 15.078125 -53.304688 15.078125 -54.109375 C 15.078125 -55.078125 14.878906 -55.820312 14.484375 -56.34375 C 14.085938 -56.875 13.445312 -57.539062 12.5625 -58.34375 C 11.6875 -59.039062 11.070312 -59.65625 10.71875 -60.1875 C 10.363281 -60.71875 10.316406 -61.421875 10.578125 -62.296875 C 11.109375 -64.328125 13.882812 -66.113281 18.90625 -67.65625 C 23.9375 -69.207031 29.1875 -69.984375 34.65625 -69.984375 C 38.269531 -69.984375 41.265625 -69.164062 43.640625 -67.53125 C 46.023438 -65.894531 47.570312 -63.578125 48.28125 -60.578125 C 52.507812 -66.847656 58.066406 -69.984375 64.953125 -69.984375 Z M 64.953125 -69.984375 "/></g></g></g><g fill="#000000" fill-opacity="1"><g transform="translate(1136.841064, 443.991695)"><g><path d="M 44.84375 -70.640625 C 56.039062 -70.640625 64.148438 -68.851562 69.171875 -65.28125 C 74.203125 -61.707031 76.71875 -57.144531 76.71875 -51.59375 C 76.71875 -49.914062 76.539062 -48.367188 76.1875 -46.953125 C 74.863281 -41.140625 71.179688 -36.972656 65.140625 -34.453125 C 59.109375 -31.941406 51.988281 -30.6875 43.78125 -30.6875 C 39.632812 -30.6875 35.753906 -30.953125 32.140625 -31.484375 C 32.054688 -26.898438 33.289062 -23.679688 35.84375 -21.828125 C 38.40625 -19.972656 41.976562 -19.046875 46.5625 -19.046875 C 48.675781 -19.046875 50.703125 -19.285156 52.640625 -19.765625 C 54.585938 -20.253906 57.0625 -20.984375 60.0625 -21.953125 C 62.53125 -22.835938 64.203125 -23.28125 65.078125 -23.28125 C 66.046875 -23.28125 66.53125 -22.707031 66.53125 -21.5625 C 66.625 -18.476562 65.476562 -15.238281 63.09375 -11.84375 C 60.71875 -8.445312 57.191406 -5.554688 52.515625 -3.171875 C 47.835938 -0.796875 42.191406 0.390625 35.578125 0.390625 C 25.796875 0.390625 17.769531 -2.078125 11.5 -7.015625 C 5.238281 -11.953125 2.109375 -19.140625 2.109375 -28.578125 C 2.109375 -31.222656 2.460938 -34.304688 3.171875 -37.828125 C 5.378906 -48.679688 10.207031 -56.863281 17.65625 -62.375 C 25.113281 -67.882812 34.175781 -70.640625 44.84375 -70.640625 Z M 33.078125 -39.421875 C 33.421875 -39.328125 33.90625 -39.28125 34.53125 -39.28125 C 38.226562 -39.28125 41.046875 -41 42.984375 -44.4375 C 44.929688 -47.882812 45.859375 -51.722656 45.765625 -55.953125 C 45.679688 -58.421875 44.976562 -59.65625 43.65625 -59.65625 C 42.6875 -59.65625 41.539062 -58.882812 40.21875 -57.34375 C 38.894531 -55.800781 37.59375 -53.484375 36.3125 -50.390625 C 35.03125 -47.304688 33.953125 -43.648438 33.078125 -39.421875 Z M 33.078125 -39.421875 "/></g></g></g><g fill="#000000" fill-opacity="1"><g transform="translate(1210.918514, 443.991695)"><g><path d="M 42.203125 -97.75 C 47.316406 -97.75 51.082031 -96.78125 53.5 -94.84375 C 55.925781 -92.90625 57.140625 -90.257812 57.140625 -86.90625 C 57.140625 -84.96875 56.832031 -83.070312 56.21875 -81.21875 L 35.453125 -13.75 C 35.179688 -12.695312 35.046875 -11.773438 35.046875 -10.984375 C 35.046875 -9.835938 35.265625 -8.929688 35.703125 -8.265625 C 36.148438 -7.609375 36.769531 -6.96875 37.5625 -6.34375 C 38.1875 -5.726562 38.628906 -5.222656 38.890625 -4.828125 C 39.148438 -4.429688 39.191406 -3.925781 39.015625 -3.3125 C 38.578125 -2.164062 37.695312 -1.328125 36.375 -0.796875 C 35.050781 -0.265625 33.023438 0 30.296875 0 L 0.125 0 C -2.164062 0 -3.835938 -0.375 -4.890625 -1.125 C -5.953125 -1.875 -6.304688 -2.863281 -5.953125 -4.09375 C -5.597656 -5.15625 -4.671875 -6.082031 -3.171875 -6.875 C -1.847656 -7.582031 -0.75 -8.421875 0.125 -9.390625 C 1.007812 -10.359375 1.757812 -11.898438 2.375 -14.015625 L 22.484375 -80.03125 C 22.753906 -80.820312 22.890625 -81.484375 22.890625 -82.015625 C 22.890625 -82.984375 22.644531 -83.773438 22.15625 -84.390625 C 21.664062 -85.015625 21.023438 -85.632812 20.234375 -86.25 C 19.359375 -86.957031 18.71875 -87.570312 18.3125 -88.09375 C 17.914062 -88.625 17.851562 -89.332031 18.125 -90.21875 C 18.65625 -92.25 21.429688 -94.007812 26.453125 -95.5 C 31.484375 -97 36.734375 -97.75 42.203125 -97.75 Z M 42.203125 -97.75 "/></g></g></g><g fill="#000000" fill-opacity="1"><g transform="translate(1259.333463, 443.991695)"><g><path d="M 42.203125 -97.75 C 47.316406 -97.75 51.082031 -96.78125 53.5 -94.84375 C 55.925781 -92.90625 57.140625 -90.257812 57.140625 -86.90625 C 57.140625 -84.96875 56.832031 -83.070312 56.21875 -81.21875 L 35.453125 -13.75 C 35.179688 -12.695312 35.046875 -11.773438 35.046875 -10.984375 C 35.046875 -9.835938 35.265625 -8.929688 35.703125 -8.265625 C 36.148438 -7.609375 36.769531 -6.96875 37.5625 -6.34375 C 38.1875 -5.726562 38.628906 -5.222656 38.890625 -4.828125 C 39.148438 -4.429688 39.191406 -3.925781 39.015625 -3.3125 C 38.578125 -2.164062 37.695312 -1.328125 36.375 -0.796875 C 35.050781 -0.265625 33.023438 0 30.296875 0 L 0.125 0 C -2.164062 0 -3.835938 -0.375 -4.890625 -1.125 C -5.953125 -1.875 -6.304688 -2.863281 -5.953125 -4.09375 C -5.597656 -5.15625 -4.671875 -6.082031 -3.171875 -6.875 C -1.847656 -7.582031 -0.75 -8.421875 0.125 -9.390625 C 1.007812 -10.359375 1.757812 -11.898438 2.375 -14.015625 L 22.484375 -80.03125 C 22.753906 -80.820312 22.890625 -81.484375 22.890625 -82.015625 C 22.890625 -82.984375 22.644531 -83.773438 22.15625 -84.390625 C 21.664062 -85.015625 21.023438 -85.632812 20.234375 -86.25 C 19.359375 -86.957031 18.71875 -87.570312 18.3125 -88.09375 C 17.914062 -88.625 17.851562 -89.332031 18.125 -90.21875 C 18.65625 -92.25 21.429688 -94.007812 26.453125 -95.5 C 31.484375 -97 36.734375 -97.75 42.203125 -97.75 Z M 42.203125 -97.75 "/></g></g></g><g fill="#000000" fill-opacity="1"><g transform="translate(1307.748412, 443.991695)"><g><path d="M 44.84375 -70.640625 C 56.039062 -70.640625 64.148438 -68.851562 69.171875 -65.28125 C 74.203125 -61.707031 76.71875 -57.144531 76.71875 -51.59375 C 76.71875 -49.914062 76.539062 -48.367188 76.1875 -46.953125 C 74.863281 -41.140625 71.179688 -36.972656 65.140625 -34.453125 C 59.109375 -31.941406 51.988281 -30.6875 43.78125 -30.6875 C 39.632812 -30.6875 35.753906 -30.953125 32.140625 -31.484375 C 32.054688 -26.898438 33.289062 -23.679688 35.84375 -21.828125 C 38.40625 -19.972656 41.976562 -19.046875 46.5625 -19.046875 C 48.675781 -19.046875 50.703125 -19.285156 52.640625 -19.765625 C 54.585938 -20.253906 57.0625 -20.984375 60.0625 -21.953125 C 62.53125 -22.835938 64.203125 -23.28125 65.078125 -23.28125 C 66.046875 -23.28125 66.53125 -22.707031 66.53125 -21.5625 C 66.625 -18.476562 65.476562 -15.238281 63.09375 -11.84375 C 60.71875 -8.445312 57.191406 -5.554688 52.515625 -3.171875 C 47.835938 -0.796875 42.191406 0.390625 35.578125 0.390625 C 25.796875 0.390625 17.769531 -2.078125 11.5 -7.015625 C 5.238281 -11.953125 2.109375 -19.140625 2.109375 -28.578125 C 2.109375 -31.222656 2.460938 -34.304688 3.171875 -37.828125 C 5.378906 -48.679688 10.207031 -56.863281 17.65625 -62.375 C 25.113281 -67.882812 34.175781 -70.640625 44.84375 -70.640625 Z M 33.078125 -39.421875 C 33.421875 -39.328125 33.90625 -39.28125 34.53125 -39.28125 C 38.226562 -39.28125 41.046875 -41 42.984375 -44.4375 C 44.929688 -47.882812 45.859375 -51.722656 45.765625 -55.953125 C 45.679688 -58.421875 44.976562 -59.65625 43.65625 -59.65625 C 42.6875 -59.65625 41.539062 -58.882812 40.21875 -57.34375 C 38.894531 -55.800781 37.59375 -53.484375 36.3125 -50.390625 C 35.03125 -47.304688 33.953125 -43.648438 33.078125 -39.421875 Z M 33.078125 -39.421875 "/></g></g></g></svg>